<svg width="326" height="326" viewBox="0 0 326 326" fill="none" xmlns="http://www.w3.org/2000/svg">
<path d="M121.626 91.6998L121.148 91.0865L72.8815 29.1364L72.8815 29.1364C67.3582 22.0465 62.761 16.1472 58.8913 11.9598L58.8913 11.9598C55.3757 8.15524 50.3161 3.23511 43.5596 2.1088M121.626 91.6998L15.2924 26.9268C15.7311 21.7647 16.7011 14.7745 21.3412 9.73604L20.4534 8.91845L21.3412 9.73603C26.9854 3.60708 35.3408 0.738907 43.5596 2.1088M121.626 91.6998L122.387 91.5403M121.626 91.6998L122.387 91.5403M43.5596 2.1088L43.7645 0.879598M43.5596 2.1088L43.7645 0.879598M43.7645 0.879598C50.9774 2.08198 56.2899 7.30832 59.8065 11.1141C63.7201 15.349 68.3542 21.2973 73.8646 28.3706L14.0507 26.8217C14.4894 21.6584 15.4709 14.2709 20.4245 8.89185C26.3537 2.45349 35.1309 -0.559441 43.7645 0.879598ZM122.387 91.5403L277.007 59.1305L277.007 59.1304C280.255 58.4486 283.373 57.7955 286.021 57.4785C288.88 57.1364 292.453 57.0004 296.204 58.2743C301.262 59.9922 305.534 63.4712 308.24 68.0763C310.248 71.4917 310.838 75.0177 311.082 77.8869C311.307 80.5439 311.3 83.7298 311.29 87.049L310.781 277.088V277.09C310.757 286.04 310.737 293.488 310.243 299.15C309.795 304.299 308.809 311.266 304.172 316.287C298.526 322.402 290.18 325.26 281.972 323.891L281.767 325.12L281.972 323.891C275.229 322.766 270.179 317.867 266.668 314.074C262.807 309.904 258.223 304.03 252.718 296.974L205.058 235.896L204.579 235.282M122.387 91.5403L204.579 235.282M204.579 235.282L203.818 235.443L204.579 235.282ZM288.489 81.5317L288.446 80.0921L287.028 80.3415C285.661 80.5817 283.85 80.9559 281.252 81.5006L139.152 111.285L137.198 111.695L138.424 113.271L218.156 215.675L218.157 215.676L270.304 282.506L271.209 281.8L270.304 282.506C276.239 290.111 280.241 295.223 283.374 298.608C284.107 299.4 284.705 299.996 285.178 300.44L286.894 302.051L287.262 299.727C287.363 299.085 287.47 298.249 287.564 297.175C287.964 292.579 287.991 286.087 288.017 276.439L288.524 87.4227C288.531 84.7673 288.53 82.9182 288.489 81.5317ZM50.1423 242.455L48.7399 244.877L51.4778 244.299L187.06 215.711L189.011 215.3L187.786 213.726L119.535 126.068L118.4 124.61L117.474 126.209L50.1423 242.455ZM37.4855 214.248L37.4832 218.89L39.81 214.873L102.892 105.964L103.313 105.236L102.796 104.573L55.2859 43.5928L55.2859 43.5927C49.332 35.9517 45.3165 30.8132 42.1717 27.4098L42.1712 27.4093C41.4351 26.6135 40.8347 26.0154 40.3618 25.5686L38.6383 23.9402L38.2746 26.2833C38.1745 26.928 38.069 27.7696 37.9768 28.8489L37.9768 28.8498C37.5862 33.4672 37.5728 39.9892 37.5681 49.6743L37.4855 214.248ZM14.8024 49.0747C14.8067 40.0879 14.8117 32.6092 15.2924 26.9272L29.8409 268.963C26.6744 267.892 23.8113 266.131 21.4447 263.831L17.7544 259.118C15.7736 255.731 15.1833 252.237 14.9349 249.389C14.7041 246.735 14.7051 243.552 14.7066 240.235L14.8024 49.0747Z" stroke="white" stroke-opacity="0.75" stroke-width="2.49233"/>
</svg>