<svg width="350" height="382" viewBox="0 0 350 382" fill="none" xmlns="http://www.w3.org/2000/svg">
<path fill-rule="evenodd" clip-rule="evenodd" d="M127.173 105.947L70.6886 33.449C64.2401 25.1715 58.817 18.2105 54.2371 13.2545C50.1217 8.8008 43.9048 2.68465 35.4638 1.27755C25.3602 -0.406492 15.0887 3.1194 8.15002 10.6539C2.35298 16.9488 1.20446 25.5941 0.691034 31.6365C0.122082 38.3611 0.11736 47.1849 0.112352 57.6774L0.000309178 281.385C-0.00153535 285.246 -0.00385165 289.041 0.272938 292.223C0.573524 295.671 1.30007 300.044 3.81725 304.305L8.25572 309.974C11.1939 312.85 14.7579 315.051 18.7028 316.386C23.2327 317.917 27.5088 317.789 30.8724 317.411C34.1028 317.047 37.8235 316.265 41.5367 315.482L223.069 277.204L278.843 348.681C285.27 356.919 290.678 363.85 295.247 368.786C299.359 373.227 305.564 379.317 313.987 380.722C324.078 382.405 334.337 378.892 341.278 371.375C347.071 365.101 348.24 356.486 348.765 350.457C349.349 343.755 349.372 334.965 349.4 324.516L349.996 102.122C350.007 98.2566 350.017 94.4585 349.747 91.2724C349.453 87.8228 348.735 83.4454 346.226 79.176C342.881 73.4852 337.602 69.1861 331.351 67.0632C326.662 65.4708 322.23 65.6534 318.792 66.0648C315.617 66.4449 311.9 67.2246 308.118 68.0187L127.173 105.947ZM319.318 347.893C319.78 342.591 319.813 335.068 319.844 323.749L320.436 102.551C320.445 99.437 320.444 97.2987 320.397 95.7046C318.826 95.9808 316.732 96.4133 313.684 97.0522L147.391 131.908L240.697 251.747L301.723 329.956C308.686 338.879 313.324 344.801 316.939 348.706C317.775 349.61 318.451 350.283 318.978 350.777C319.09 350.064 319.212 349.119 319.318 347.893ZM44.1894 284.714L202.855 251.259L122.985 148.676L44.1894 284.714ZM29.6707 58.3806L29.5741 250.974L103.396 123.522L47.7964 52.1592C40.811 43.1944 36.157 37.2409 32.5287 33.3144C31.6885 32.4061 31.0089 31.7294 30.4803 31.23C30.3688 31.9482 30.2491 32.8997 30.1438 34.1328C29.6932 39.4601 29.6762 47.0178 29.6707 58.3806Z" fill="#fff" fill-opacity="1"/>
</svg>
